<?xml version="1.0" standalone="no"?>
<!DOCTYPE svg PUBLIC "-//W3C//DTD SVG 20010904//EN"
 "http://www.w3.org/TR/2001/REC-SVG-20010904/DTD/svg10.dtd">
<svg version="1.0" xmlns="http://www.w3.org/2000/svg"
 width="510.000000pt" height="520.000000pt" viewBox="0 0 510.000000 520.000000"
 preserveAspectRatio="xMidYMid meet">

<g transform="translate(0.000000,520.000000) scale(0.100000,-0.100000)"
fill="#000000" stroke="none">
<path d="M2270 5191 c-8 -5 -53 -17 -100 -26 -146 -29 -371 -123 -510 -213
-53 -35 -58 -36 -137 -33 -138 4 -279 -45 -411 -144 -160 -120 -252 -308 -252
-515 0 -182 49 -489 126 -785 29 -115 61 -239 70 -275 28 -109 23 -104 66 -75
30 20 53 26 108 29 39 1 72 5 75 8 3 2 7 38 9 79 12 194 108 450 213 567 l38
43 95 -12 c107 -13 281 -6 405 16 79 14 266 20 278 9 13 -13 -21 -77 -71 -134
-49 -55 -94 -84 -159 -104 -37 -11 -27 -32 25 -52 37 -15 73 -19 172 -19 116
0 129 2 176 27 28 15 65 39 82 53 l31 26 3 -33 3 -33 90 2 c50 2 99 7 110 12
11 4 45 19 75 32 72 30 176 98 219 143 20 20 45 36 57 36 12 0 60 -20 106 -44
129 -68 204 -88 322 -85 96 3 100 2 115 -22 9 -13 18 -26 22 -29 12 -10 27
-46 64 -150 28 -80 38 -130 45 -208 4 -56 13 -108 19 -116 6 -7 24 -16 40 -19
38 -8 111 -77 111 -105 0 -25 25 -30 34 -6 3 9 6 36 6 61 0 25 9 151 20 282
32 389 50 677 52 846 1 178 -9 233 -65 339 -37 69 -163 201 -229 240 -34 20
-48 34 -48 49 1 50 51 80 123 75 46 -3 52 -1 55 17 4 30 -82 142 -136 176
-102 65 -222 79 -447 54 -82 -9 -186 -27 -230 -40 -44 -13 -156 -47 -249 -75
-93 -28 -170 -49 -172 -47 -2 2 13 20 33 41 48 48 42 58 -67 103 -83 34 -89
35 -240 39 -85 2 -162 0 -170 -5z"/>
<path d="M1779 3121 l-39 -39 0 -92 c0 -77 3 -97 21 -121 57 -81 164 -77 220
7 24 37 27 170 4 214 -25 48 -62 70 -118 70 -44 0 -53 -4 -88 -39z"/>
<path d="M3116 3139 c-43 -34 -56 -70 -56 -156 0 -86 15 -120 66 -154 57 -37
147 -12 179 51 21 41 20 183 -1 220 -36 60 -135 81 -188 39z"/>
<path d="M2150 2453 c-27 -11 -50 -39 -56 -69 -8 -43 27 -81 114 -121 189 -87
469 -85 657 7 89 43 100 54 100 101 0 34 -6 46 -30 65 -37 29 -59 30 -110 3
-79 -43 -148 -61 -256 -66 -124 -7 -219 11 -318 57 -64 30 -75 33 -101 23z"/>
<path d="M2096 1800 c-3 -18 -6 -78 -6 -134 -1 -149 -27 -186 -156 -226 -38
-12 -87 -27 -109 -34 l-40 -13 60 -22 c121 -45 175 -55 310 -55 123 0 136 2
233 36 149 52 247 114 373 238 98 97 205 227 195 237 -2 3 -47 -11 -99 -31
-104 -39 -238 -66 -327 -66 -85 0 -216 26 -311 60 -46 17 -91 33 -100 36 -12
4 -18 -3 -23 -26z"/>
</g>
</svg>
