<?xml version="1.0" standalone="no"?>
<!DOCTYPE svg PUBLIC "-//W3C//DTD SVG 20010904//EN"
 "http://www.w3.org/TR/2001/REC-SVG-20010904/DTD/svg10.dtd">
<svg version="1.0" xmlns="http://www.w3.org/2000/svg"
 width="211.000000pt" height="256.000000pt" viewBox="0 0 211.000000 256.000000"
 preserveAspectRatio="xMidYMid meet">

<g transform="translate(0.000000,256.000000) scale(0.100000,-0.100000)"
fill="#000000" stroke="none">
<path d="M844 2395 c-91 -16 -134 -30 -209 -68 -224 -111 -381 -311 -432 -550
-19 -92 -13 -307 12 -385 14 -45 19 -53 38 -50 26 4 26 12 2 118 -37 163 -6
360 82 520 54 98 196 234 300 288 87 45 211 82 275 82 l38 0 0 -648 c0 -476 3
-651 12 -660 8 -8 17 -8 31 -1 19 11 19 21 12 683 -4 369 -9 674 -12 679 -6
10 -67 7 -149 -8z"/>
<path d="M1261 2256 c-20 -24 -2 -42 58 -54 61 -13 76 -23 83 -57 4 -24 40
-32 57 -11 17 21 4 62 -30 91 -49 41 -145 59 -168 31z"/>
<path d="M1610 2159 c0 -57 -2 -63 -35 -94 -41 -37 -39 -65 4 -65 45 0 83 49
89 114 6 78 -3 106 -33 106 -24 0 -25 -3 -25 -61z"/>
<path d="M1353 2024 c-3 -8 -1 -26 5 -40 6 -13 9 -31 5 -39 -10 -27 -80 -55
-166 -67 -104 -15 -121 -25 -94 -61 11 -16 20 -16 91 -6 157 21 236 71 236
148 0 20 -7 47 -16 59 -18 25 -52 29 -61 6z"/>
<path d="M1592 1948 c-18 -18 -15 -29 19 -64 40 -42 49 -106 25 -189 -19 -64
-16 -85 13 -85 55 0 86 197 43 276 -12 23 -68 74 -81 74 -4 0 -12 -5 -19 -12z"/>
<path d="M1332 1734 c-95 -47 -129 -118 -94 -195 34 -77 136 -155 168 -128 23
19 16 46 -16 59 -42 17 -100 84 -100 116 0 40 17 62 71 89 55 28 68 47 49 70
-16 20 -17 19 -78 -11z"/>
<path d="M1752 1501 c-43 -41 -60 -64 -56 -75 11 -28 52 -18 92 22 69 69 76
80 62 97 -19 23 -30 18 -98 -44z"/>
<path d="M1534 1485 c-4 -9 4 -39 16 -67 19 -45 21 -57 11 -89 -7 -22 -24 -47
-41 -59 -35 -25 -39 -56 -9 -65 46 -15 119 77 119 150 0 56 -43 145 -70 145
-11 0 -23 -7 -26 -15z"/>
<path d="M1101 1242 c-19 -35 1 -43 110 -45 85 -2 111 -6 139 -23 70 -40 78
-119 14 -136 -36 -9 -50 -33 -33 -54 23 -28 92 -6 123 38 19 26 21 100 5 131
-40 77 -111 107 -255 107 -80 0 -95 -3 -103 -18z"/>
<path d="M303 1214 c-14 -38 141 -209 251 -275 l55 -34 1 -80 c0 -88 8 -109
36 -103 17 3 19 13 19 108 l0 104 -60 36 c-73 43 -194 156 -232 216 -29 45
-59 57 -70 28z"/>
<path d="M956 894 c-3 -9 -6 -58 -6 -110 l0 -94 -149 0 c-142 0 -149 -1 -174
-24 l-25 -23 0 -196 c0 -147 3 -200 13 -214 11 -15 32 -19 122 -23 106 -5 108
-5 111 -30 6 -39 21 -50 67 -50 29 0 45 -5 49 -15 7 -19 35 -19 42 0 4 10 20
15 44 15 58 0 70 8 70 46 l0 34 104 0 c147 0 143 -6 143 232 0 174 -5 213 -31
230 -6 4 -82 8 -168 8 l-158 0 0 103 c0 101 -7 127 -36 127 -6 0 -15 -7 -18
-16z m197 -341 c-89 -2 -237 -2 -330 0 -92 1 -19 3 162 3 182 0 257 -2 168 -3z
m0 -140 c-89 -2 -237 -2 -330 0 -92 1 -19 3 162 3 182 0 257 -2 168 -3z m0
-140 c-89 -2 -237 -2 -330 0 -92 1 -19 3 162 3 182 0 257 -2 168 -3z"/>
<path d="M1232 888 c-20 -20 -14 -36 23 -64 40 -30 112 -40 181 -26 32 7 39
12 39 32 0 23 -2 24 -77 25 -63 0 -82 4 -107 23 -35 25 -42 27 -59 10z"/>
</g>
</svg>
