<?xml version="1.0" standalone="no"?>
<!DOCTYPE svg PUBLIC "-//W3C//DTD SVG 20010904//EN"
 "http://www.w3.org/TR/2001/REC-SVG-20010904/DTD/svg10.dtd">
<svg version="1.0" xmlns="http://www.w3.org/2000/svg"
 width="211.000000pt" height="256.000000pt" viewBox="0 0 211.000000 256.000000"
 preserveAspectRatio="xMidYMid meet">

<g transform="translate(0.000000,256.000000) scale(0.100000,-0.100000)"
fill="#000000" stroke="none">
<path d="M825 2395 c-252 -56 -443 -203 -556 -428 -62 -123 -82 -209 -82 -357
0 -162 25 -265 63 -265 29 0 30 6 5 115 -37 163 -6 360 82 520 54 98 196 234
300 288 87 45 211 82 275 82 l38 0 0 -648 c0 -476 3 -651 12 -660 7 -7 17 -8
30 -1 17 9 18 38 18 674 0 365 -3 670 -6 679 -8 20 -92 20 -179 1z"/>
<path d="M1261 2256 c-20 -24 -2 -42 58 -54 61 -13 76 -23 83 -57 4 -24 40
-32 57 -11 17 21 4 62 -30 91 -49 41 -145 59 -168 31z"/>
<path d="M1617 2223 c-4 -3 -7 -33 -7 -66 0 -55 -2 -62 -35 -92 -24 -21 -33
-37 -29 -48 10 -28 57 -21 89 13 26 27 30 40 33 100 3 46 0 75 -8 85 -13 16
-32 19 -43 8z"/>
<path d="M1353 2024 c-3 -8 -1 -26 5 -40 6 -13 9 -31 5 -39 -10 -27 -81 -56
-170 -68 -94 -14 -122 -33 -92 -62 13 -13 26 -14 94 -4 156 21 235 71 235 148
0 20 -7 47 -16 59 -18 25 -52 29 -61 6z"/>
<path d="M1592 1948 c-18 -18 -15 -29 19 -64 40 -42 49 -106 25 -189 -19 -64
-16 -85 13 -85 55 0 86 197 43 276 -12 23 -68 74 -81 74 -4 0 -12 -5 -19 -12z"/>
<path d="M1332 1734 c-95 -47 -129 -118 -94 -195 34 -77 136 -155 168 -128 23
19 16 46 -16 59 -42 17 -100 84 -100 116 0 40 17 62 71 89 55 28 68 47 49 70
-16 20 -17 19 -78 -11z"/>
<path d="M1752 1501 c-66 -62 -74 -91 -24 -91 32 0 135 102 130 128 -7 35 -42
22 -106 -37z"/>
<path d="M1534 1485 c-4 -9 4 -39 16 -67 19 -45 21 -57 11 -89 -7 -22 -24 -47
-41 -59 -35 -25 -39 -56 -9 -65 46 -15 119 77 119 150 0 56 -43 145 -70 145
-11 0 -23 -7 -26 -15z"/>
<path d="M1099 1244 c-8 -10 -10 -21 -3 -31 7 -11 33 -15 114 -16 86 -2 111
-6 140 -23 70 -40 78 -119 14 -136 -36 -9 -50 -33 -33 -54 23 -28 92 -6 123
38 19 26 21 100 5 131 -40 77 -112 107 -255 107 -71 0 -94 -3 -105 -16z"/>
<path d="M303 1214 c-3 -8 1 -27 8 -41 26 -49 160 -182 229 -228 l69 -46 3
-87 c3 -85 3 -87 28 -87 l25 0 0 105 0 104 -60 36 c-73 43 -194 156 -232 216
-29 45 -59 57 -70 28z"/>
<path d="M956 894 c-3 -9 -6 -58 -6 -110 l0 -94 -149 0 c-133 0 -151 -2 -174
-20 l-25 -20 0 -204 c0 -180 2 -206 17 -220 12 -11 44 -16 121 -18 l105 -3 3
-37 3 -38 54 0 c38 0 54 -4 59 -15 7 -19 35 -19 42 0 5 11 21 15 60 15 57 0
55 -2 58 55 1 18 10 20 109 25 90 4 111 8 122 23 20 27 19 393 -1 424 -14 22
-21 23 -177 25 l-162 3 -3 105 c-3 102 -8 119 -38 120 -7 0 -15 -7 -18 -16z
m197 -341 c-89 -2 -237 -2 -330 0 -92 1 -19 3 162 3 182 0 257 -2 168 -3z m0
-140 c-89 -2 -237 -2 -330 0 -92 1 -19 3 162 3 182 0 257 -2 168 -3z m0 -140
c-89 -2 -237 -2 -330 0 -92 1 -19 3 162 3 182 0 257 -2 168 -3z"/>
<path d="M1232 888 c-20 -20 -14 -36 24 -64 27 -21 50 -29 95 -32 74 -6 125 4
133 25 11 28 -11 37 -88 38 -61 0 -80 4 -105 23 -35 25 -42 27 -59 10z"/>
</g>
</svg>
